<svg version="1.1" id="Layer_1" xmlns="http://www.w3.org/2000/svg" xmlns:xlink="http://www.w3.org/1999/xlink" x="0px" y="0px"
	 width="100%" viewBox="0 0 864 864" enable-background="new 0 0 864 864" xml:space="preserve">
<path fill="#47704C" opacity="1.000000" stroke="none" 
	d="
M399.000000,865.000000 
	C266.000031,865.000000 133.500076,865.000000 1.000089,865.000000 
	C1.000059,577.000122 1.000059,289.000244 1.000030,1.000282 
	C288.999786,1.000188 576.999573,1.000188 864.999512,1.000094 
	C864.999695,288.999695 864.999695,576.999390 864.999878,864.999512 
	C709.833313,865.000000 554.666687,865.000000 399.000000,865.000000 
M253.962402,422.039978 
	C253.962402,422.039978 253.942505,422.096283 253.800446,421.375031 
	C253.234665,418.011932 250.875488,417.097260 247.314316,416.737518 
	C245.528809,414.863251 243.743286,412.988983 241.812012,410.392181 
	C241.238037,407.033112 238.888031,406.093903 235.314346,405.737518 
	C233.528839,403.863251 231.743317,401.989014 229.822647,399.408569 
	C228.510391,397.953308 227.198135,396.498047 225.305283,394.728821 
	C215.539307,384.323578 205.599731,374.074738 196.051025,363.473755 
	C183.980865,350.073395 172.192261,336.417999 160.425201,322.749481 
	C159.665024,321.866455 159.668243,319.762512 160.118393,318.516205 
	C161.119904,315.743439 163.222794,313.281677 163.826920,310.467743 
	C166.035950,300.178314 161.238770,291.312012 151.963058,286.953644 
	C143.519272,282.986145 133.117783,286.233032 127.467880,293.945679 
	C122.559410,300.646210 122.580383,310.066925 128.007980,318.013916 
	C132.393051,324.434448 141.066788,327.639069 148.556030,325.105530 
	C152.286728,323.843414 153.835236,324.840912 155.039124,328.404266 
	C161.425308,347.306824 168.320343,366.042816 174.419876,385.035431 
	C182.084518,408.901276 189.292679,432.917480 196.388138,456.960175 
	C198.547104,464.275757 199.682465,471.893433 201.286636,479.372742 
	C200.809189,479.713776 200.331757,480.054840 199.854324,480.395874 
	C150.024338,451.244843 102.989754,417.787109 55.253708,385.820709 
	C56.591774,381.653412 58.523136,377.986176 58.854626,374.179596 
	C59.992493,361.113129 47.763786,350.787933 34.384918,353.086731 
	C22.781824,355.080444 15.226665,367.655823 19.035608,378.635315 
	C23.351067,391.074890 34.831821,396.256744 47.298847,391.196411 
	C49.664326,390.236298 51.074940,390.294586 52.768143,392.392426 
	C61.582973,403.313873 70.483986,414.167542 79.479332,424.941040 
	C90.390846,438.009552 101.473259,450.935272 112.396339,463.994232 
	C125.432121,479.579102 138.235321,495.360962 151.427216,510.811676 
	C157.240829,517.620728 161.297760,524.630188 162.251923,533.943909 
	C163.693253,548.012573 166.635742,561.924377 168.830841,575.919983 
	C170.644608,587.484314 172.248749,599.081543 174.045486,610.648682 
	C175.038727,617.042969 176.236969,623.405457 177.251816,629.257629 
	C194.634750,618.572449 211.481644,607.892883 228.644302,597.747498 
	C250.926941,584.575500 274.752899,574.627441 299.254974,566.532959 
	C322.268127,558.930420 345.716217,552.698914 369.901062,549.895142 
	C384.978973,548.147156 400.050964,545.777039 415.183197,545.202576 
	C437.889069,544.340576 460.670776,544.500366 483.233093,548.003052 
	C498.690125,550.402710 514.202515,552.631104 529.496094,555.856567 
	C554.584473,561.147705 578.747253,569.448181 602.330322,579.574646 
	C629.783875,591.363281 655.630981,605.882568 679.893860,623.285339 
	C683.067322,625.561523 686.490906,627.489075 690.546936,630.050781 
	C692.214905,618.420044 693.569580,608.298157 695.132874,598.208496 
	C698.715515,575.085632 702.373230,551.974182 706.076721,528.870361 
	C706.537598,525.995605 706.666626,522.576172 708.308777,520.468018 
	C715.108215,511.739136 722.428589,503.415985 729.560364,494.946136 
	C742.121887,480.027832 754.755371,465.169495 767.230347,450.179230 
	C782.972473,431.263214 798.582642,412.237427 814.259399,393.267029 
	C816.156616,390.971313 817.896606,389.538940 821.338318,391.484100 
	C823.732300,392.837128 827.051453,392.918427 829.959473,392.928284 
	C838.730347,392.958008 845.551941,387.369324 848.309875,378.289948 
	C850.853333,369.916412 847.626587,361.086426 840.023560,355.614380 
	C834.589661,351.703461 821.415894,351.639069 816.503113,356.267914 
	C813.294739,359.290894 809.693359,363.251465 808.998596,367.264801 
	C807.997559,373.046936 809.477173,379.258453 809.898193,385.286713 
	C810.474121,386.096985 809.692871,386.970917 808.749939,387.604309 
	C794.088745,397.453552 779.437439,407.317932 764.718811,417.080872 
	C754.566101,423.815247 744.313599,430.399139 733.487122,436.937134 
	C731.500854,437.620117 729.281250,437.939941 727.564758,439.042755 
	C712.168396,448.935181 696.883118,459.000488 681.502380,468.917572 
	C679.151978,470.433075 676.480286,471.450317 673.957214,472.697998 
	C673.556885,472.324097 673.156555,471.950226 672.756226,471.576355 
	C673.177856,469.031647 673.298950,466.392334 674.065796,463.956329 
	C687.606323,420.943756 701.242188,377.961151 714.801025,334.954315 
	C716.115173,330.786041 718.471619,329.418335 722.951294,329.750854 
	C734.371399,330.598633 743.943115,323.884430 747.021973,313.533936 
	C749.298767,305.879761 745.920227,296.178192 739.301941,292.725555 
	C738.344910,291.799286 737.403748,290.855927 736.428284,289.949463 
	C729.976685,283.954407 718.414490,283.326874 711.064941,288.520050 
	C702.691772,294.436584 700.145630,305.765106 704.055847,313.856262 
	C705.145508,316.111176 707.163391,317.917450 708.490662,319.594940 
	C706.559326,322.339600 704.963501,325.094238 702.895569,327.431030 
	C699.855530,330.866241 696.237793,333.801666 693.298523,337.312042 
	C688.283264,343.301849 683.763306,349.706818 678.739380,355.688904 
	C673.420837,362.021759 667.811035,368.114014 662.228149,374.219635 
	C657.077515,379.852539 652.002014,385.578888 646.522461,390.880768 
	C637.104248,399.993713 627.314026,408.721130 617.836487,417.774261 
	C609.231079,425.994293 599.943054,433.093079 589.259705,438.538544 
	C581.952820,442.262970 576.971130,438.329620 577.057983,430.363007 
	C577.161133,420.907867 577.689148,411.457977 577.980225,402.004181 
	C578.670044,379.599792 579.304749,357.193634 580.012329,334.789825 
	C580.279419,326.334747 580.572876,317.877380 581.077393,309.434387 
	C581.320068,305.373566 582.081116,301.343719 582.596130,297.386902 
	C597.637634,295.488281 605.272034,285.402618 602.007812,272.107819 
	C599.959595,263.765747 592.899353,257.470917 585.075073,257.010864 
	C573.154541,256.309937 565.699707,260.515991 562.325073,270.476776 
	C559.256226,279.534943 562.591309,288.260254 569.737244,293.692261 
	C572.743164,295.977203 572.860535,297.771149 571.688232,300.644531 
	C569.443420,306.146790 567.081421,311.610840 565.091064,317.205627 
	C552.566711,352.410675 536.147217,385.628815 515.248596,416.654816 
	C511.925842,421.587677 508.762268,426.238525 503.481720,429.273651 
	C498.882721,431.917084 497.008881,431.855042 494.760437,427.307159 
	C491.552643,420.818787 487.895172,414.375793 485.920227,407.486145 
	C478.245941,380.714752 470.406982,353.951599 464.038025,326.854248 
	C455.105804,288.851440 447.422180,250.554993 439.234863,212.377625 
	C438.670990,209.748367 438.739777,207.363632 442.283081,206.759949 
	C443.356049,206.577133 444.396729,205.804291 445.303101,205.107697 
	C453.080353,199.130325 455.543732,186.310471 450.531525,178.127548 
	C444.874268,168.891449 434.065552,165.718658 424.236572,169.859283 
	C413.592896,174.343124 411.324768,183.324783 413.907745,194.575897 
	C415.654114,202.182739 421.862366,205.911804 429.084991,208.838730 
	C427.544342,214.938400 425.837738,220.911697 424.538391,226.972305 
	C418.321960,255.967941 412.553101,285.064117 405.962891,313.973572 
	C400.767975,336.762390 395.053619,359.456421 388.727509,381.955688 
	C384.322052,397.624023 380.410461,413.608551 371.689026,427.737000 
	C369.469055,431.333252 366.468506,432.263916 363.189636,429.443878 
	C359.549500,426.313141 355.680939,423.056213 353.181763,419.059998 
	C343.557068,403.669983 333.948303,388.231018 325.252930,372.308289 
	C313.191040,350.220917 304.835724,326.472504 295.818390,303.036377 
	C294.081360,298.521881 293.702209,295.149384 298.199249,292.157990 
	C299.902283,291.025177 301.115234,289.025940 302.287262,287.247467 
	C306.966614,280.146759 306.501678,269.343903 297.823975,260.393250 
	C297.165039,259.079437 296.768860,257.515656 295.799774,256.496826 
	C292.357056,252.877380 283.313873,251.976761 277.838501,254.502213 
	C269.104736,258.530548 264.573303,264.420624 265.035828,271.956543 
	C265.060120,275.621826 265.084381,279.287109 264.923950,283.553070 
	C265.839844,285.174622 266.755707,286.796173 267.690094,288.374390 
	C267.690094,288.374390 267.727692,288.402740 267.743835,289.162994 
	C268.842010,291.095428 269.653992,293.280548 271.093597,294.911591 
	C274.962372,299.294708 280.184875,301.159393 285.946442,302.921600 
	C286.000519,307.265198 286.054596,311.608795 285.972168,316.419739 
	C286.259216,317.279205 286.546295,318.138672 286.946533,319.924225 
	C287.000580,324.600281 287.054626,329.276337 286.972168,334.419739 
	C287.259216,335.279205 287.546265,336.138672 287.946533,337.928925 
	C288.000580,343.936737 288.054626,349.944580 287.972198,356.419739 
	C288.259247,357.279205 288.546295,358.138672 288.946533,359.929474 
	C289.000580,366.603790 289.054596,373.278076 288.972168,380.419739 
	C289.259216,381.279205 289.546295,382.138672 289.946564,383.929718 
	C289.908813,400.287079 289.871063,416.644409 289.251312,433.369080 
	C285.303192,436.556396 281.060822,436.491638 276.757477,434.307373 
	C273.098328,432.450104 269.619781,430.223602 265.907227,428.490570 
	C263.925476,427.565460 261.617706,427.338745 259.310242,426.757996 
	C259.310242,426.757996 259.263336,426.613556 259.220825,425.868896 
	C257.449341,424.599457 255.677841,423.330017 253.962402,422.039978 
z"/>
<path fill="#000000" opacity="1.000000" stroke="none" 
	d="
M288.108643,355.952393 
	C288.054626,349.944580 288.000580,343.936737 287.941040,337.131592 
	C287.659943,335.540283 287.384308,334.746338 287.108704,333.952393 
	C287.054626,329.276337 287.000580,324.600281 286.941040,319.129211 
	C286.659912,317.540283 286.384308,316.746338 286.108673,315.952393 
	C286.054596,311.608795 286.000519,307.265198 285.937622,302.070770 
	C285.054260,299.841217 284.219635,297.300659 283.298920,297.269043 
	C276.446228,297.034027 271.880371,293.162354 267.727692,288.402740 
	C267.727692,288.402740 267.690094,288.374390 267.500671,288.091492 
	C266.577087,286.189850 265.842896,284.571106 265.108673,282.952393 
	C265.084381,279.287109 265.060120,275.621826 265.348846,271.295715 
	C270.376038,257.621185 285.331665,252.626404 297.957825,261.114746 
	C306.501678,269.343903 306.966614,280.146759 302.287262,287.247467 
	C301.115234,289.025940 299.902283,291.025177 298.199249,292.157990 
	C293.702209,295.149384 294.081360,298.521881 295.818390,303.036377 
	C304.835724,326.472504 313.191040,350.220917 325.252930,372.308289 
	C333.948303,388.231018 343.557068,403.669983 353.181763,419.059998 
	C355.680939,423.056213 359.549500,426.313141 363.189636,429.443878 
	C366.468506,432.263916 369.469055,431.333252 371.689026,427.737000 
	C380.410461,413.608551 384.322052,397.624023 388.727509,381.955688 
	C395.053619,359.456421 400.767975,336.762390 405.962891,313.973572 
	C412.553101,285.064117 418.321960,255.967941 424.538391,226.972305 
	C425.837738,220.911697 427.544342,214.938400 429.084991,208.838730 
	C421.862366,205.911804 415.654114,202.182739 413.907745,194.575897 
	C411.324768,183.324783 413.592896,174.343124 424.236572,169.859283 
	C434.065552,165.718658 444.874268,168.891449 450.531525,178.127548 
	C455.543732,186.310471 453.080353,199.130325 445.303101,205.107697 
	C444.396729,205.804291 443.356049,206.577133 442.283081,206.759949 
	C438.739777,207.363632 438.670990,209.748367 439.234863,212.377625 
	C447.422180,250.554993 455.105804,288.851440 464.038025,326.854248 
	C470.406982,353.951599 478.245941,380.714752 485.920227,407.486145 
	C487.895172,414.375793 491.552643,420.818787 494.760437,427.307159 
	C497.008881,431.855042 498.882721,431.917084 503.481720,429.273651 
	C508.762268,426.238525 511.925842,421.587677 515.248596,416.654816 
	C536.147217,385.628815 552.566711,352.410675 565.091064,317.205627 
	C567.081421,311.610840 569.443420,306.146790 571.688232,300.644531 
	C572.860535,297.771149 572.743164,295.977203 569.737244,293.692261 
	C562.591309,288.260254 559.256226,279.534943 562.325073,270.476776 
	C565.699707,260.515991 573.154541,256.309937 585.075073,257.010864 
	C592.899353,257.470917 599.959595,263.765747 602.007812,272.107819 
	C605.272034,285.402618 597.637634,295.488281 582.596130,297.386902 
	C582.081116,301.343719 581.320068,305.373566 581.077393,309.434387 
	C580.572876,317.877380 580.279419,326.334747 580.012329,334.789825 
	C579.304749,357.193634 578.670044,379.599792 577.980225,402.004181 
	C577.689148,411.457977 577.161133,420.907867 577.057983,430.363007 
	C576.971130,438.329620 581.952820,442.262970 589.259705,438.538544 
	C599.943054,433.093079 609.231079,425.994293 617.836487,417.774261 
	C627.314026,408.721130 637.104248,399.993713 646.522461,390.880768 
	C652.002014,385.578888 657.077515,379.852539 662.228149,374.219635 
	C667.811035,368.114014 673.420837,362.021759 678.739380,355.688904 
	C683.763306,349.706818 688.283264,343.301849 693.298523,337.312042 
	C696.237793,333.801666 699.855530,330.866241 702.895569,327.431030 
	C704.963501,325.094238 706.559326,322.339600 708.490662,319.594940 
	C707.163391,317.917450 705.145508,316.111176 704.055847,313.856262 
	C700.145630,305.765106 702.691772,294.436584 711.064941,288.520050 
	C718.414490,283.326874 729.976685,283.954407 736.428284,289.949463 
	C737.403748,290.855927 738.344910,291.799286 739.762207,293.204102 
	C740.475159,294.109039 740.738464,294.529572 740.979126,294.962646 
	C745.125061,302.423767 745.143494,310.011292 740.310852,316.943604 
	C735.026611,324.523651 727.568726,327.641052 718.259033,325.185394 
	C714.796143,324.271942 713.146362,326.067139 712.029175,329.172180 
	C696.559082,372.167847 682.124390,415.495667 670.278015,459.646210 
	C668.637573,465.760071 667.762390,472.079285 666.284851,479.559204 
	C669.060791,478.677063 670.508972,478.506561 671.636963,477.814331 
	C685.696777,469.185547 699.815308,460.644592 713.691589,451.727692 
	C720.732727,447.203094 727.315674,441.965515 734.105713,437.050262 
	C744.313599,430.399139 754.566101,423.815247 764.718811,417.080872 
	C779.437439,407.317932 794.088745,397.453552 808.749939,387.604309 
	C809.692871,386.970917 810.474121,386.096985 809.898193,385.286713 
	C809.477173,379.258453 807.997559,373.046936 808.998596,367.264801 
	C809.693359,363.251465 813.294739,359.290894 816.503113,356.267914 
	C821.415894,351.639069 834.589661,351.703461 840.023560,355.614380 
	C847.626587,361.086426 850.853333,369.916412 848.309875,378.289948 
	C845.551941,387.369324 838.730347,392.958008 829.959473,392.928284 
	C827.051453,392.918427 823.732300,392.837128 821.338318,391.484100 
	C817.896606,389.538940 816.156616,390.971313 814.259399,393.267029 
	C798.582642,412.237427 782.972473,431.263214 767.230347,450.179230 
	C754.755371,465.169495 742.121887,480.027832 729.560364,494.946136 
	C722.428589,503.415985 715.108215,511.739136 708.308777,520.468018 
	C706.666626,522.576172 706.537598,525.995605 706.076721,528.870361 
	C702.373230,551.974182 698.715515,575.085632 695.132874,598.208496 
	C693.569580,608.298157 692.214905,618.420044 690.546936,630.050781 
	C686.490906,627.489075 683.067322,625.561523 679.893860,623.285339 
	C655.630981,605.882568 629.783875,591.363281 602.330322,579.574646 
	C578.747253,569.448181 554.584473,561.147705 529.496094,555.856567 
	C514.202515,552.631104 498.690125,550.402710 483.233093,548.003052 
	C460.670776,544.500366 437.889069,544.340576 415.183197,545.202576 
	C400.050964,545.777039 384.978973,548.147156 369.901062,549.895142 
	C345.716217,552.698914 322.268127,558.930420 299.254974,566.532959 
	C274.752899,574.627441 250.926941,584.575500 228.644302,597.747498 
	C211.481644,607.892883 194.634750,618.572449 177.251816,629.257629 
	C176.236969,623.405457 175.038727,617.042969 174.045486,610.648682 
	C172.248749,599.081543 170.644608,587.484314 168.830841,575.919983 
	C166.635742,561.924377 163.693253,548.012573 162.251923,533.943909 
	C161.297760,524.630188 157.240829,517.620728 151.427216,510.811676 
	C138.235321,495.360962 125.432121,479.579102 112.396339,463.994232 
	C101.473259,450.935272 90.390846,438.009552 79.479332,424.941040 
	C70.483986,414.167542 61.582973,403.313873 52.768143,392.392426 
	C51.074940,390.294586 49.664326,390.236298 47.298847,391.196411 
	C34.831821,396.256744 23.351067,391.074890 19.035608,378.635315 
	C15.226665,367.655823 22.781824,355.080444 34.384918,353.086731 
	C47.763786,350.787933 59.992493,361.113129 58.854626,374.179596 
	C58.523136,377.986176 56.591774,381.653412 55.253708,385.820709 
	C102.989754,417.787109 150.024338,451.244843 199.854324,480.395874 
	C200.331757,480.054840 200.809189,479.713776 201.286636,479.372742 
	C199.682465,471.893433 198.547104,464.275757 196.388138,456.960175 
	C189.292679,432.917480 182.084518,408.901276 174.419876,385.035431 
	C168.320343,366.042816 161.425308,347.306824 155.039124,328.404266 
	C153.835236,324.840912 152.286728,323.843414 148.556030,325.105530 
	C141.066788,327.639069 132.393051,324.434448 128.007980,318.013916 
	C122.580383,310.066925 122.559410,300.646210 127.467880,293.945679 
	C133.117783,286.233032 143.519272,282.986145 151.963058,286.953644 
	C161.238770,291.312012 166.035950,300.178314 163.826920,310.467743 
	C163.222794,313.281677 161.119904,315.743439 160.118393,318.516205 
	C159.668243,319.762512 159.665024,321.866455 160.425201,322.749481 
	C172.192261,336.417999 183.980865,350.073395 196.051025,363.473755 
	C205.599731,374.074738 215.539307,384.323578 225.746582,395.181885 
	C227.444534,397.128235 228.701172,398.621490 229.957809,400.114746 
	C231.743317,401.989014 233.528839,403.863251 235.761414,406.183472 
	C238.124924,408.124512 240.041351,409.619629 241.957764,411.114716 
	C243.743286,412.988983 245.528809,414.863251 247.761078,417.183105 
	C250.119385,419.117889 252.030945,420.607086 253.942505,422.096283 
	C253.942505,422.096283 253.962402,422.039978 254.091583,422.340576 
	C255.901627,423.965302 257.582489,425.289429 259.263336,426.613556 
	C259.263336,426.613556 259.310242,426.757996 259.589050,427.023315 
	C266.314240,431.391968 272.485291,436.049042 279.289734,439.432220 
	C285.271332,442.406311 289.078186,439.607544 289.833344,433.001770 
	C289.871063,416.644409 289.908813,400.287079 289.941040,383.131958 
	C289.659912,381.540283 289.384308,380.746338 289.108643,379.952393 
	C289.054596,373.278076 289.000580,366.603790 288.941040,359.131836 
	C288.659912,357.540283 288.384277,356.746338 288.108643,355.952393 
z"/>
<path fill="#47704C" opacity="1.000000" stroke="none" 
	d="
M733.796387,436.993713 
	C727.315674,441.965515 720.732727,447.203094 713.691589,451.727692 
	C699.815308,460.644592 685.696777,469.185547 671.636963,477.814331 
	C670.508972,478.506561 669.060791,478.677063 666.284851,479.559204 
	C667.762390,472.079285 668.637573,465.760071 670.278015,459.646210 
	C682.124390,415.495667 696.559082,372.167847 712.029175,329.172180 
	C713.146362,326.067139 714.796143,324.271942 718.259033,325.185394 
	C727.568726,327.641052 735.026611,324.523651 740.310852,316.943604 
	C745.143494,310.011292 745.125061,302.423767 740.979126,294.962646 
	C740.738464,294.529572 740.475159,294.109039 740.054199,293.362732 
	C745.920227,296.178192 749.298767,305.879761 747.021973,313.533936 
	C743.943115,323.884430 734.371399,330.598633 722.951294,329.750854 
	C718.471619,329.418335 716.115173,330.786041 714.801025,334.954315 
	C701.242188,377.961151 687.606323,420.943756 674.065796,463.956329 
	C673.298950,466.392334 673.177856,469.031647 672.756226,471.576355 
	C673.156555,471.950226 673.556885,472.324097 673.957214,472.697998 
	C676.480286,471.450317 679.151978,470.433075 681.502380,468.917572 
	C696.883118,459.000488 712.168396,448.935181 727.564758,439.042755 
	C729.281250,437.939941 731.500854,437.620117 733.796387,436.993713 
z"/>
<path fill="#47704C" opacity="1.000000" stroke="none" 
	d="
M297.890900,260.753998 
	C285.331665,252.626404 270.376038,257.621185 265.386719,270.839966 
	C264.573303,264.420624 269.104736,258.530548 277.838501,254.502213 
	C283.313873,251.976761 292.357056,252.877380 295.799774,256.496826 
	C296.768860,257.515656 297.165039,259.079437 297.890900,260.753998 
z"/>
<path fill="#47704C" opacity="1.000000" stroke="none" 
	d="
M289.542328,433.185425 
	C289.078186,439.607544 285.271332,442.406311 279.289734,439.432220 
	C272.485291,436.049042 266.314240,431.391968 259.662476,427.042725 
	C261.617706,427.338745 263.925476,427.565460 265.907227,428.490570 
	C269.619781,430.223602 273.098328,432.450104 276.757477,434.307373 
	C281.060822,436.491638 285.303192,436.556396 289.542328,433.185425 
z"/>
<path fill="#47704C" opacity="1.000000" stroke="none" 
	d="
M267.735779,288.782867 
	C271.880371,293.162354 276.446228,297.034027 283.298920,297.269043 
	C284.219635,297.300659 285.054260,299.841217 285.881042,301.609375 
	C280.184875,301.159393 274.962372,299.294708 271.093597,294.911591 
	C269.653992,293.280548 268.842010,291.095428 267.735779,288.782867 
z"/>
<path fill="#47704C" opacity="1.000000" stroke="none" 
	d="
M241.884888,410.753448 
	C240.041351,409.619629 238.124924,408.124512 236.047302,406.336182 
	C238.888031,406.093903 241.238037,407.033112 241.884888,410.753448 
z"/>
<path fill="#47704C" opacity="1.000000" stroke="none" 
	d="
M253.871475,421.735657 
	C252.030945,420.607086 250.119385,419.117889 248.046967,417.335815 
	C250.875488,417.097260 253.234665,418.011932 253.871475,421.735657 
z"/>
<path fill="#47704C" opacity="1.000000" stroke="none" 
	d="
M259.242065,426.241211 
	C257.582489,425.289429 255.901627,423.965302 254.063553,422.350891 
	C255.677841,423.330017 257.449341,424.599457 259.242065,426.241211 
z"/>
<path fill="#47704C" opacity="1.000000" stroke="none" 
	d="
M265.016296,283.252747 
	C265.842896,284.571106 266.577087,286.189850 267.491425,288.113159 
	C266.755707,286.796173 265.839844,285.174622 265.016296,283.252747 
z"/>
<path fill="#47704C" opacity="1.000000" stroke="none" 
	d="
M229.890228,399.761658 
	C228.701172,398.621490 227.444534,397.128235 226.036880,395.338867 
	C227.198135,396.498047 228.510391,397.953308 229.890228,399.761658 
z"/>
<path fill="#47704C" opacity="1.000000" stroke="none" 
	d="
M286.040405,316.186066 
	C286.384308,316.746338 286.659912,317.540283 286.884460,318.666199 
	C286.546295,318.138672 286.259216,317.279205 286.040405,316.186066 
z"/>
<path fill="#47704C" opacity="1.000000" stroke="none" 
	d="
M287.040436,334.186066 
	C287.384308,334.746338 287.659943,335.540283 287.884460,336.666199 
	C287.546265,336.138672 287.259216,335.279205 287.040436,334.186066 
z"/>
<path fill="#47704C" opacity="1.000000" stroke="none" 
	d="
M288.040405,356.186066 
	C288.384277,356.746338 288.659912,357.540283 288.884460,358.666199 
	C288.546295,358.138672 288.259247,357.279205 288.040405,356.186066 
z"/>
<path fill="#47704C" opacity="1.000000" stroke="none" 
	d="
M289.040405,380.186066 
	C289.384308,380.746338 289.659912,381.540283 289.884460,382.666199 
	C289.546295,382.138672 289.259216,381.279205 289.040405,380.186066 
z"/>
</svg>