<svg version="1.1" id="Layer_1" xmlns="http://www.w3.org/2000/svg" xmlns:xlink="http://www.w3.org/1999/xlink" x="0px" y="0px"
	 width="100%" viewBox="0 0 1600 1600" enable-background="new 0 0 1600 1600" xml:space="preserve">
<path fill="none" opacity="1.000000" stroke="none" 
	d="
M929.000000,1601.000000 
	C619.333435,1601.000000 310.166840,1601.000000 1.000207,1601.000000 
	C1.000138,1067.666870 1.000138,534.333862 1.000069,1.000565 
	C534.332947,1.000377 1067.665894,1.000377 1600.999023,1.000188 
	C1600.999390,534.332764 1600.999390,1067.665527 1600.999756,1600.999146 
	C1377.166626,1601.000000 1153.333374,1601.000000 929.000000,1601.000000 
M792.319458,587.694702 
	C788.327332,583.746277 784.658997,579.389404 780.285767,575.921509 
	C763.246216,562.409241 744.326050,557.535889 722.941895,563.835449 
	C709.325256,567.846741 699.177795,576.838684 689.344238,586.279297 
	C683.875916,591.529114 677.947754,594.283264 670.202881,594.131592 
	C661.758423,593.966064 653.045410,593.682739 644.883728,595.452881 
	C618.355103,601.206665 597.253235,615.419006 583.576233,639.207825 
	C568.899353,664.735718 566.416809,691.727051 577.315491,719.190063 
	C580.936096,728.313538 586.952209,736.503784 592.041138,745.020264 
	C594.768005,749.583679 594.613525,750.525330 589.452576,751.646606 
	C583.627502,752.912231 577.783508,754.294250 571.873108,754.917175 
	C562.312439,755.924805 552.678528,756.225220 543.105469,757.138245 
	C541.236267,757.316528 538.620239,758.525757 537.959778,759.987427 
	C537.317505,761.408813 538.138611,764.403809 539.382996,765.583130 
	C542.342834,768.388306 545.645081,771.175842 549.324341,772.810974 
	C558.699585,776.977600 568.707642,778.392883 578.975342,778.034851 
	C581.505005,777.946594 584.049622,778.286011 587.517700,778.481262 
	C585.973450,781.537354 585.147034,783.688965 583.892700,785.552673 
	C580.839905,790.088623 578.052368,794.928589 574.334717,798.869385 
	C560.166382,813.888306 544.427185,817.058899 527.440491,806.812073 
	C513.876160,798.629822 506.165375,785.717102 500.036224,771.648376 
	C494.604034,759.179382 491.791962,745.993042 491.257050,732.558228 
	C490.825500,721.719421 489.217072,710.417175 497.503082,700.848145 
	C502.177948,695.449280 500.377533,690.960266 493.216400,690.077393 
	C484.767120,689.035767 477.404083,686.751465 470.053589,681.987793 
	C461.273376,676.297668 452.750366,682.042053 453.070709,692.496887 
	C453.441559,704.599060 453.813446,716.738525 455.089783,728.765808 
	C456.572723,742.739685 458.220764,756.790161 461.252289,770.485352 
	C466.944244,796.199341 477.511200,819.633057 497.394104,837.871155 
	C510.037292,849.468628 524.972290,856.444641 542.021606,857.872925 
	C575.492371,860.677063 602.429382,846.371643 625.452942,823.769592 
	C637.569824,811.874512 646.974670,797.693481 654.334717,782.287048 
	C655.517517,779.811157 656.954773,776.787842 660.042725,778.341248 
	C661.893066,779.271973 663.320312,782.184998 663.790161,784.445557 
	C664.456299,787.651001 663.903259,791.088318 664.152344,794.405396 
	C665.381042,810.766479 666.788940,827.114319 667.962219,843.479187 
	C668.804565,855.228516 669.182129,867.013123 670.144226,878.751038 
	C670.709839,885.650818 671.518005,892.608704 673.126404,899.322632 
	C674.691467,905.855713 681.599854,910.906006 687.782837,910.955444 
	C700.280212,911.055359 712.796326,911.351196 725.266602,910.761597 
	C729.027954,910.583740 733.134338,908.366455 736.242737,905.986389 
	C740.506897,902.721313 741.997620,897.613281 741.995178,892.207764 
	C741.992371,886.027161 741.994507,879.846558 741.994507,873.665955 
	C742.478088,873.661804 742.961609,873.657654 743.445190,873.653564 
	C743.964722,879.644104 744.483826,885.634705 745.003906,891.625183 
	C745.935120,902.350037 754.062256,909.907043 764.893433,909.979980 
	C775.058167,910.048401 785.227356,910.165588 795.388184,909.953674 
	C811.543335,909.616638 815.684204,898.857910 815.776367,887.086487 
	C815.896179,871.789917 815.282959,856.488098 815.080078,841.187317 
	C815.063965,839.971863 815.674561,837.745300 816.183228,837.688721 
	C819.444702,837.325378 822.859863,836.974915 825.998108,837.658813 
	C827.013245,837.880005 827.845825,841.207703 827.913696,843.144043 
	C828.402588,857.101379 828.471375,871.075928 829.129028,885.023560 
	C829.343567,889.574585 830.309387,894.303223 831.998840,898.523376 
	C834.746704,905.387451 839.976929,909.199707 847.858948,909.053040 
	C859.353333,908.839172 870.854736,909.022766 882.353027,908.990051 
	C892.543091,908.961060 899.857056,901.653625 899.981628,891.367676 
	C900.052246,885.535950 899.899841,879.699707 900.071472,873.872070 
	C900.126648,872.000366 900.896912,870.149719 901.340088,868.289429 
	C901.770203,868.378113 902.200317,868.466736 902.630432,868.555420 
	C903.423706,875.439819 904.408691,882.308655 904.968628,889.211975 
	C906.004517,901.982910 912.767700,913.435913 928.549561,912.074524 
	C937.476318,911.304565 946.477539,911.444763 955.430054,910.916626 
	C969.638184,910.078430 977.036499,901.505920 976.112183,888.401550 
	C975.247375,876.142395 975.365601,863.815735 974.961975,851.521667 
	C974.678589,842.890076 974.037476,834.265991 973.933777,825.633972 
	C973.814575,815.712341 973.330627,805.699280 974.416138,795.881958 
	C975.942322,782.079285 978.856506,768.433960 980.975281,754.690247 
	C981.510193,751.221130 982.933655,750.791138 985.603821,752.382141 
	C989.308899,754.589478 992.835693,757.139221 996.679199,759.061890 
	C1004.595398,763.022156 1010.486572,768.716736 1013.585205,777.114197 
	C1013.756592,777.578735 1014.005371,778.020813 1014.261536,778.447327 
	C1023.275635,793.450378 1047.526123,803.208374 1064.507080,798.628052 
	C1065.380005,798.392517 1066.144531,797.754272 1067.210083,797.164917 
	C1066.400024,796.191772 1065.994019,795.402344 1065.348511,794.974304 
	C1056.654175,789.209534 1050.998169,781.246643 1046.702148,771.752625 
	C1042.000732,761.362976 1034.292480,753.765686 1022.378479,751.600098 
	C1020.289185,751.220276 1017.990906,750.699341 1016.322510,749.501038 
	C1004.220947,740.809326 993.597595,730.650452 985.888672,717.723816 
	C975.471802,700.256287 967.944336,680.850281 951.823486,666.399719 
	C950.761414,664.774109 950.010986,662.778870 948.589050,661.580139 
	C934.316528,649.548035 917.910278,641.817261 899.752502,637.641479 
	C873.597290,631.626587 847.033691,630.549622 820.359314,631.219421 
	C815.974243,631.329590 814.154907,630.085205 813.113220,625.883850 
	C810.168457,614.007019 805.461487,602.809570 798.389648,592.758179 
	C797.042114,590.842773 794.743835,589.596252 792.319458,587.694702 
z"/>
<path fill="#1A1A1A" opacity="1.000000" stroke="none" 
	d="
M951.958923,667.115845 
	C967.944336,680.850281 975.471802,700.256287 985.888672,717.723816 
	C993.597595,730.650452 1004.220947,740.809326 1016.322510,749.501038 
	C1017.990906,750.699341 1020.289185,751.220276 1022.378479,751.600098 
	C1034.292480,753.765686 1042.000732,761.362976 1046.702148,771.752625 
	C1050.998169,781.246643 1056.654175,789.209534 1065.348511,794.974304 
	C1065.994019,795.402344 1066.400024,796.191772 1067.210083,797.164917 
	C1066.144531,797.754272 1065.380005,798.392517 1064.507080,798.628052 
	C1047.526123,803.208374 1023.275635,793.450378 1014.261536,778.447327 
	C1014.005371,778.020813 1013.756592,777.578735 1013.585205,777.114197 
	C1010.486572,768.716736 1004.595398,763.022156 996.679199,759.061890 
	C992.835693,757.139221 989.308899,754.589478 985.603821,752.382141 
	C982.933655,750.791138 981.510193,751.221130 980.975281,754.690247 
	C978.856506,768.433960 975.942322,782.079285 974.416138,795.881958 
	C973.330627,805.699280 973.814575,815.712341 973.933777,825.633972 
	C974.037476,834.265991 974.678589,842.890076 974.961975,851.521667 
	C975.365601,863.815735 975.247375,876.142395 976.112183,888.401550 
	C977.036499,901.505920 969.638184,910.078430 955.430054,910.916626 
	C946.477539,911.444763 937.476318,911.304565 928.549561,912.074524 
	C912.767700,913.435913 906.004517,901.982910 904.968628,889.211975 
	C904.408691,882.308655 903.423706,875.439819 902.630432,868.555420 
	C902.200317,868.466736 901.770203,868.378113 901.340088,868.289429 
	C900.896912,870.149719 900.126648,872.000366 900.071472,873.872070 
	C899.899841,879.699707 900.052246,885.535950 899.981628,891.367676 
	C899.857056,901.653625 892.543091,908.961060 882.353027,908.990051 
	C870.854736,909.022766 859.353333,908.839172 847.858948,909.053040 
	C839.976929,909.199707 834.746704,905.387451 831.998840,898.523376 
	C830.309387,894.303223 829.343567,889.574585 829.129028,885.023560 
	C828.471375,871.075928 828.402588,857.101379 827.913696,843.144043 
	C827.845825,841.207703 827.013245,837.880005 825.998108,837.658813 
	C822.859863,836.974915 819.444702,837.325378 816.183228,837.688721 
	C815.674561,837.745300 815.063965,839.971863 815.080078,841.187317 
	C815.282959,856.488098 815.896179,871.789917 815.776367,887.086487 
	C815.684204,898.857910 811.543335,909.616638 795.388184,909.953674 
	C785.227356,910.165588 775.058167,910.048401 764.893433,909.979980 
	C754.062256,909.907043 745.935120,902.350037 745.003906,891.625183 
	C744.483826,885.634705 743.964722,879.644104 743.445190,873.653564 
	C742.961609,873.657654 742.478088,873.661804 741.994507,873.665955 
	C741.994507,879.846558 741.992371,886.027161 741.995178,892.207764 
	C741.997620,897.613281 740.506897,902.721313 736.242737,905.986389 
	C733.134338,908.366455 729.027954,910.583740 725.266602,910.761597 
	C712.796326,911.351196 700.280212,911.055359 687.782837,910.955444 
	C681.599854,910.906006 674.691467,905.855713 673.126404,899.322632 
	C671.518005,892.608704 670.709839,885.650818 670.144226,878.751038 
	C669.182129,867.013123 668.804565,855.228516 667.962219,843.479187 
	C666.788940,827.114319 665.381042,810.766479 664.152344,794.405396 
	C663.903259,791.088318 664.456299,787.651001 663.790161,784.445557 
	C663.320312,782.184998 661.893066,779.271973 660.042725,778.341248 
	C656.954773,776.787842 655.517517,779.811157 654.334717,782.287048 
	C646.974670,797.693481 637.569824,811.874512 625.452942,823.769592 
	C602.429382,846.371643 575.492371,860.677063 542.021606,857.872925 
	C524.972290,856.444641 510.037292,849.468628 497.394104,837.871155 
	C477.511200,819.633057 466.944244,796.199341 461.252289,770.485352 
	C458.220764,756.790161 456.572723,742.739685 455.089783,728.765808 
	C453.813446,716.738525 453.441559,704.599060 453.070709,692.496887 
	C452.750366,682.042053 461.273376,676.297668 470.053589,681.987793 
	C477.404083,686.751465 484.767120,689.035767 493.216400,690.077393 
	C500.377533,690.960266 502.177948,695.449280 497.503082,700.848145 
	C489.217072,710.417175 490.825500,721.719421 491.257050,732.558228 
	C491.791962,745.993042 494.604034,759.179382 500.036224,771.648376 
	C506.165375,785.717102 513.876160,798.629822 527.440491,806.812073 
	C544.427185,817.058899 560.166382,813.888306 574.334717,798.869385 
	C578.052368,794.928589 580.839905,790.088623 583.892700,785.552673 
	C585.147034,783.688965 585.973450,781.537354 587.517700,778.481262 
	C584.049622,778.286011 581.505005,777.946594 578.975342,778.034851 
	C568.707642,778.392883 558.699585,776.977600 549.324341,772.810974 
	C545.645081,771.175842 542.342834,768.388306 539.382996,765.583130 
	C538.138611,764.403809 537.317505,761.408813 537.959778,759.987427 
	C538.620239,758.525757 541.236267,757.316528 543.105469,757.138245 
	C552.678528,756.225220 562.312439,755.924805 571.873108,754.917175 
	C577.783508,754.294250 583.627502,752.912231 589.452576,751.646606 
	C594.613525,750.525330 594.768005,749.583679 592.041138,745.020264 
	C586.952209,736.503784 580.936096,728.313538 577.315491,719.190063 
	C566.416809,691.727051 568.899353,664.735718 583.576233,639.207825 
	C597.253235,615.419006 618.355103,601.206665 644.883728,595.452881 
	C653.045410,593.682739 661.758423,593.966064 670.202881,594.131592 
	C677.947754,594.283264 683.875916,591.529114 689.344238,586.279297 
	C699.177795,576.838684 709.325256,567.846741 722.941895,563.835449 
	C744.326050,557.535889 763.246216,562.409241 780.285767,575.921509 
	C784.658997,579.389404 788.327332,583.746277 792.767334,588.170654 
	C794.475220,590.596680 795.700806,592.569946 797.000854,594.492920 
	C805.865662,607.605164 810.399536,622.359680 811.820801,637.851318 
	C813.857910,660.055237 809.094177,681.089783 798.616516,700.837830 
	C792.126953,713.069397 782.842041,720.275879 768.294617,719.046509 
	C764.655396,718.738953 760.909912,718.594299 757.314026,719.096069 
	C749.763550,720.149841 742.279907,721.682373 734.768799,723.018311 
	C734.855042,723.702087 734.941284,724.385803 735.027527,725.069580 
	C738.388794,724.868225 741.757568,724.749573 745.109863,724.448303 
	C752.006409,723.828735 758.913513,722.420715 765.780579,722.613403 
	C773.925659,722.841797 781.614746,722.332581 788.654602,717.872559 
	C796.471191,712.920410 800.661804,705.216125 804.404724,697.169067 
	C812.514099,679.734375 816.627197,661.440674 815.905884,642.182068 
	C815.659668,635.607361 815.929260,634.916138 822.452454,635.036621 
	C834.086487,635.251404 845.745544,635.271484 857.340820,636.110291 
	C869.049133,636.957275 880.754333,638.310425 892.349182,640.146973 
	C907.198059,642.498779 921.294678,647.429626 934.240479,655.170532 
	C940.344910,658.820618 946.064819,663.113953 951.958923,667.115845 
z"/>
<path fill="none" opacity="1.000000" stroke="none" 
	d="
M951.891235,666.757812 
	C946.064819,663.113953 940.344910,658.820618 934.240479,655.170532 
	C921.294678,647.429626 907.198059,642.498779 892.349182,640.146973 
	C880.754333,638.310425 869.049133,636.957275 857.340820,636.110291 
	C845.745544,635.271484 834.086487,635.251404 822.452454,635.036621 
	C815.929260,634.916138 815.659668,635.607361 815.905884,642.182068 
	C816.627197,661.440674 812.514099,679.734375 804.404724,697.169067 
	C800.661804,705.216125 796.471191,712.920410 788.654602,717.872559 
	C781.614746,722.332581 773.925659,722.841797 765.780579,722.613403 
	C758.913513,722.420715 752.006409,723.828735 745.109863,724.448303 
	C741.757568,724.749573 738.388794,724.868225 735.027527,725.069580 
	C734.941284,724.385803 734.855042,723.702087 734.768799,723.018311 
	C742.279907,721.682373 749.763550,720.149841 757.314026,719.096069 
	C760.909912,718.594299 764.655396,718.738953 768.294617,719.046509 
	C782.842041,720.275879 792.126953,713.069397 798.616516,700.837830 
	C809.094177,681.089783 813.857910,660.055237 811.820801,637.851318 
	C810.399536,622.359680 805.865662,607.605164 797.000854,594.492920 
	C795.700806,592.569946 794.475220,590.596680 793.049683,588.343872 
	C794.743835,589.596252 797.042114,590.842773 798.389648,592.758179 
	C805.461487,602.809570 810.168457,614.007019 813.113220,625.883850 
	C814.154907,630.085205 815.974243,631.329590 820.359314,631.219421 
	C847.033691,630.549622 873.597290,631.626587 899.752502,637.641479 
	C917.910278,641.817261 934.316528,649.548035 948.589050,661.580139 
	C950.010986,662.778870 950.761414,664.774109 951.891235,666.757812 
z"/>
</svg>